<svg width="72" height="72" viewBox="0 0 72 72" fill="none" xmlns="http://www.w3.org/2000/svg">
<circle cx="36" cy="36" r="36" fill="black"/>
<path d="M36 0C16.1484 0 0 16.1499 0 36C0 55.8501 16.1484 72 36 72C55.8516 72 72 55.8501 72 36C72 16.1499 55.8516 0 36 0ZM36 69C17.8037 69 2.99995 54.1963 2.99995 36C2.99995 17.8037 17.8037 2.99995 36 2.99995C54.1963 2.99995 69 17.8037 69 36C69 54.1963 54.1963 69 36 69Z" fill="white"/>
<path d="M50.3115 34.7387L29.3116 21.2387C28.8516 20.9385 28.2569 20.9223 27.7823 21.183C27.2988 21.4467 27 21.9507 27 22.5V49.5C27 50.0492 27.2988 50.5532 27.7823 50.8169C28.0049 50.9386 28.254 51 28.5 51C28.7813 51 29.0655 50.9208 29.3116 50.7612L50.3115 37.2612C50.7393 36.9859 51 36.5097 51 36C51 35.4902 50.7393 35.0142 50.3115 34.7387ZM30 46.7519V25.2481L46.7256 36L30 46.7519Z" fill="white"/>
</svg>
